<svg xmlns="http://www.w3.org/2000/svg" viewBox="0 0 100 100" width="100" height="100">
  <!-- 背景圆形 -->
  <circle cx="50" cy="50" r="48" fill="#3B82F6" />
  <circle cx="50" cy="50" r="42" fill="#2563EB" />
  
  <!-- 信封/信件样式图标 -->
  <path d="M25 30H75C77.7614 30 80 32.2386 80 35V65C80 67.7614 77.7614 70 75 70H25C22.2386 70 20 67.7614 20 65V35C20 32.2386 22.2386 30 25 30Z" fill="white" />
  
  <!-- 信封上的纸张折线 -->
  <path d="M30 40L50 55L70 40" stroke="#3B82F6" stroke-width="4" stroke-linecap="round" fill="none" />
  
  <!-- 博客文章标志线 -->
  <path d="M35 45H65" stroke="#3B82F6" stroke-width="2" stroke-linecap="round" />
  <path d="M35 50H65" stroke="#3B82F6" stroke-width="2" stroke-linecap="round" />
  <path d="M35 55H55" stroke="#3B82F6" stroke-width="2" stroke-linecap="round" />
  
  <!-- 装饰点 -->
  <circle cx="50" cy="65" r="2" fill="#3B82F6" />
  
  <!-- 边框装饰 -->
  <path d="M25 35L50 50L75 35" fill="#EFF6FF" opacity="0.7" />
</svg> 